PathFileType	4	(X/Y/Z)	C:/Users/beibeiliu/ov580/test_trc/User2\sequence.21_training_dense_right.trc
DataRate	CameraRate	NumFrames	NumMarkers	Units	OrigDataRate	OrigDataStartFrame	OrigNumFrames
120	120	10	19	mm	120	242	322
Frame#	Time	ThumbCMC			ThumbMCP			ThumbIP			ThumbTip			IndexMCP			IndexPIP			IndexTip			MiddleMCP			MiddlePIP			MiddleTip			RingMCP			RingPIP			RingTip			PinkyMCP			PinkyPIP			PinkyTip			BackHand1			BackHand2			BackHand3	
		X0	Y0	Z0	X1	Y1	Z1	X2	Y2	Z2	X3	Y3	Z3	X4	Y4	Z4	X5	Y5	Z5	X6	Y6	Z6	X7	Y7	Z7	X8	Y8	Z8	X9	Y9	Z9	X10	Y10	Z10	X11	Y11	Z11	X12	Y12	Z12	X13	Y13	Z13	X14	Y14	Z14	X15	Y15	Z15	X16	Y16	Z16	X17	Y17	Z17	X18	Y18	Z18	
241	2.00833	98.3579	22.6999	10.0396	62.1947	35.5803	-2.81403	31.1172	34.3138	-15.1886	6.37947	34.5283	-22.8096	53.4583	-16.6513	-41.9713	25.7577	-11.5288	-47.3102	-1.73061	1.14483	-45.4383	37.4534	-23.7895	-24.4904	22.4164	3.3649	-9.10541	56.4	8.48286	10.9608	29.3491	-24.3952	-0.837666	29.7525	2.64613	16.6218	62.9947	0.0833654	24.5339	30.3395	-31.7638	18.682	36.8185	-1.8981	31.6436	71.2332	-7.65464	36.6869	89.4	-47.1544	15.9765	113.149	-36.7497	40.7548	113.488	-19.2295	5.11029	
242	2.01667	103.029	22.2993	7.17762	70.503	33.9786	-4.56439	38.1942	40.0586	-20.6161	16.9245	39.8397	-26.0357	61.9139	-15.0048	-46.4888	31.3433	-8.46464	-52.0227	3.25738	3.06942	-48.3952	41.7518	-23.2806	-26.8313	27.9444	7.9696	-13.8387	59.2869	11.8355	6.60825	33.6673	-22.9914	-3.55634	32.4001	6.44704	10.0237	68.9439	0.554604	21.3159	32.3968	-29.1736	16.0842	41.3113	3.45505	29.1577	74.8116	-4.09011	31.8949	87.7334	-44.4884	13.2423	113.398	-38.5329	42.1945	118.613	-18.1906	8.217	
243	2.025	112.195	25.8028	8.19667	79.0182	37.1073	-9.03873	47.4601	37.0506	-27.3335	25.6175	40.4194	-37.3339	67.6903	-16.0299	-52.5838	43.048	-7.48459	-60.8153	15.4909	4.1195	-59.8475	53.588	-25.1214	-34.3588	32.4631	2.59404	-23.303	65.2693	13.0156	0.195837	41.2575	-21.8437	-13.8749	37.7468	4.61303	-0.550668	70.3485	4.69258	13.5797	40.9778	-27.819	5.15667	45.9167	2.51055	18.5992	73.5495	-3.47729	26.0474	92.93	-47.9006	11.01	116.243	-37.7489	39.1527	125.463	-17.6152	5.0172	
244	2.03333	111.877	29.2347	12.3613	78.6254	34.7488	-8.73258	48.2282	33.0519	-31.4339	28.2381	33.8672	-42.4096	82.1471	-12.442	-54.9791	54.7856	-7.48797	-67.3382	24.4243	2.12055	-68.4934	67.7718	-22.7198	-44.1594	41.724	-1.44631	-29.5473	71.1684	11.2116	-3.64494	50.6631	-27.7116	-22.4754	40.0021	-4.19911	-5.32418	76.3709	0.929577	11.0802	48.7433	-35.0101	-3.46386	48.2058	-4.59322	11.3429	80.1632	-7.65953	24.5746	108.918	-43.3262	6.40268	123.4	-35.2281	37.844	131.004	-11.2141	2.72885	
245	2.04167	106.634	31.9859	17.0057	74.2035	33.1078	-6.76924	49.4512	28.6372	-28.294	28.7696	23.1641	-43.2041	95.2511	-2.7256	-56.3173	70.039	-0.405642	-71.6906	35.6112	-2.08907	-75.4743	77.6475	-20.8894	-49.1575	50.1129	-5.09309	-35.4455	71.1428	8.85221	-4.6043	63.8799	-32.1667	-29.9508	48.4613	-9.55794	-12.6414	74.9298	-3.85114	8.31387	58.5982	-39.6611	-13.1615	52.7778	-14.8202	4.3064	81.3092	-9.57036	18.9502	118.369	-38.4841	-0.439903	131.858	-30.3081	36.392	135.353	0.146514	8.63107	
246	2.05	96.499	32.5062	19.0963	66.0057	28.0921	-5.35455	44.6674	19.4788	-29.007	27.9141	11.4797	-48.4097	100.312	6.93796	-56.3372	74.5107	3.83848	-75.6477	49.5427	-2.39001	-83.2716	86.7718	-14.8995	-53.6297	56.0856	-9.71361	-37.2938	76.6969	6.67247	-5.78944	78.0275	-27.4493	-39.7621	54.3419	-19.0912	-17.9664	79.6207	-9.66603	5.65247	76.0761	-43.1075	-23.6202	57.7478	-26.0379	-5.61067	84.6379	-13.8617	17.161	130.063	-32.9244	-1.82607	136.81	-26.6395	35.0988	134.788	10.1964	12.9541	
247	2.05833	85.0213	27.9374	23.5784	57.6387	19.5946	-3.42422	38.4857	10.7951	-30.5191	24.1956	3.80838	-49.8812	100.338	18.2333	-54.7519	77.112	8.55723	-74.8909	51.9921	-1.05042	-88.0615	93.6526	-6.24853	-53.8199	61.1755	-11.3072	-40.4722	74.2983	1.24511	-6.39083	84.5539	-29.4336	-44.2009	62.7774	-28.2744	-23.444	83.5852	-13.6483	3.29854	86.956	-45.9958	-31.3557	65.6201	-32.7593	-10.8459	84.9176	-23.3972	14.0803	135.161	-23.034	1.30246	137.767	-17.9816	34.6154	130.525	16.9269	15.7163	
248	2.06667	75.7204	16.9146	27.1505	52.0185	7.34738	0.348418	35.8554	-0.522915	-32.2689	22.5272	-8.30808	-52.174	94.5348	22.5152	-51.5134	78.8461	10.3262	-71.7232	58.8958	-3.71056	-87.9411	94.7722	-6.18736	-54.1411	64.4821	-16.374	-42.5544	74.3656	-6.44388	-5.82517	94.2373	-25.0811	-44.4771	69.0163	-31.6169	-30.5324	85.7605	-17.513	2.12212	100.21	-43.5176	-34.7349	74.4125	-41.3017	-14.3942	90.45	-28.5541	14.3137	138.014	-13.1169	1.90313	141.355	-17.1316	37.504	121.489	17.1196	21.0439	
249	2.075	71.0931	6.74994	30.1329	49.2629	-3.28487	-3.3047	35.7498	-11.384	-31.4484	24.4156	-19.3843	-56.51	89.2041	21.0135	-50.1198	74.1083	11.2788	-71.3922	60.5905	-6.18671	-88.6075	94.8819	-5.61021	-53.7347	66.9842	-23.099	-45.4004	75.4925	-14.8677	-3.86618	94.9319	-26.8736	-45.8561	74.1397	-39.4502	-28.3316	86.5475	-23.7319	2.97084	104.188	-40.0829	-35.1057	82.0986	-51.1706	-14.2631	94.7894	-31.94	13.0131	134.944	-5.62016	3.88069	136.846	-13.0201	41.3605	116.8	15.7803	26.4006	
250	2.08333	63.4582	0.290839	27.4031	43.1094	-12.5938	0.227419	31.1705	-19.227	-33.4737	27.0057	-27.9116	-55.3102	79.5776	21.5003	-48.2653	72.4359	8.95959	-68.6959	57.9643	-6.82705	-87.9748	93.3667	-3.33731	-49.4536	70.2226	-30.7238	-44.907	74.2981	-22.2838	-5.24987	101.594	-27.7326	-42.6178	79.0824	-46.1555	-29.1523	87.9646	-29.1831	5.21915	109.002	-41.6001	-34.1657	85.3731	-53.6809	-12.2157	96.4135	-37.4424	13.8908	131.623	-3.13865	8.02919	131.866	-10.0284	40.4393	105.131	17.1726	26.7041	
